<?xml version="1.0" encoding="utf-8"?>
<!-- Generator: Adobe Illustrator 22.1.0, SVG Export Plug-In . SVG Version: 6.00 Build 0)  -->
<svg version="1.1" id="Layer_1" xmlns="http://www.w3.org/2000/svg" xmlns:xlink="http://www.w3.org/1999/xlink" x="0px" y="0px"
	 viewBox="0 0 302 83" style="enable-background:new 0 0 302 83;" xml:space="preserve">
<style type="text/css">
	.st0{fill:#FFE200;}
	.st1{font-family:'Montserrat-ExtraBold';}
	.st2{font-size:64.01px;}
	.st3{font-family:'ArialMT';}
	.st4{font-size:70.833px;}
	.st5{fill:#AAAAAA;}
	.st6{font-family:'Arial-BoldMT';}
	.st7{font-size:63.75px;}
	.st8{fill:none;}
</style>
<g>
	<text transform="matrix(1 0 0 1 85.1492 61.334)" class="st0 st1 st2">SS</text>
	<text transform="matrix(1 0 0 1 169.0021 61.334)" class="st0 st3 st4">[</text>
	<text transform="matrix(1 0 0 1 188.6818 61.334)" class="st5 st6 st7">OJ</text>
</g>
<g>
	<text transform="matrix(1 0 0 1 85.1492 61.334)" class="st0 st1 st2">SS</text>
	<text transform="matrix(1 0 0 1 85.1492 61.334)" class="st8 st1 st2">SS</text>
	<text transform="matrix(1 0 0 1 188.6818 61.334)" class="st5 st6 st7">OJ</text>
	<text transform="matrix(1 0 0 1 188.6818 61.334)" class="st8 st6 st7">o</text>
	<text transform="matrix(1 0 0 1 273.7233 61.334)" class="st0 st3 st4">]</text>
</g>
<g transform="translate(0,0)">
	<path class="st0" d="M42.6,8l-29,16.7l-0.1,33.6L42.6,75l29-16.7l0.1-33.6L42.6,8z M42.4,16.2l7.5,4.3v8.7l-7.5,4.3l-7.5-4.3v-8.7
		C34.9,20.5,42.4,16.2,42.4,16.2z M27.3,24.9l7.5,4.3v8.7l-7.5,4.3l7.5,4.3v8.7l-7.5,4.3l-7.5-4.3v-8.7l7.5-4.3l-7.5-4.3v-8.7
		L27.3,24.9L27.3,24.9z M57.5,24.9l7.5,4.3v8.7l-7.5,4.3l7.5,4.3v8.7l-7.5,4.3l-7.5-4.3v-8.7l7.5-4.3l-7.5-4.3v-8.7L57.5,24.9z
		 M42.4,33.6l7.5,4.3v8.7L42.4,51l7.5,4.3V64l-7.5,4.3L34.9,64v-8.7l7.5-4.3l-7.5-4.3v-8.7L42.4,33.6L42.4,33.6z"/>
</g>
</svg>
