<svg id="Layer_1" data-name="Layer 1" xmlns="http://www.w3.org/2000/svg" viewBox="0 0 302 83"><defs><style>.cls-1,.cls-2,.cls-3,.cls-4,.cls-5,.cls-6,.cls-7{isolation:isolate;}.cls-2,.cls-6{font-size:64.01px;font-family:Montserrat-ExtraBold, Montserrat;}.cls-2,.cls-3,.cls-8,.cls-9{fill:#ffe200;}.cls-2,.cls-4,.cls-6,.cls-7{font-weight:700;}.cls-3,.cls-5,.cls-8{font-size:70.83px;font-family:ArialMT, Arial;}.cls-3,.cls-6,.cls-7,.cls-8,.cls-9{stroke:#000;}.cls-4,.cls-7{font-size:63.75px;font-family:Arial-BoldMT, Arial;}.cls-4{fill:#aaa;}.cls-6,.cls-7{fill:none;}.cls-6,.cls-7,.cls-8{stroke-linejoin:round;}.cls-9{stroke-miterlimit:10;}</style></defs><title>Artboard 1</title><g id="SS_OJ_" data-name="SS OJ " class="cls-1"><text class="cls-2" transform="translate(72.65 63.83)">SS</text><text class="cls-3" transform="translate(156.51 63.83)">[</text><text class="cls-4" transform="translate(176.19 63.83)">OJ</text><text class="cls-5" transform="translate(261.23 63.83)">]</text></g><g id="SS_OJ_2" data-name="SS OJ " class="cls-1"><text class="cls-2" transform="translate(72.65 63.83)">SS</text><text class="cls-6" transform="translate(72.65 63.83)">SS</text><text class="cls-1"></text><text class="cls-4" transform="translate(176.19 63.83)">OJ</text><text class="cls-7" transform="translate(176.19 63.83)">OJ</text><text class="cls-8" transform="translate(261.23 63.83)">]</text></g><path class="cls-9" d="M37,14,13.21,27.73l0,27.54L37.07,69,60.89,55.27l0-27.54Zm-.17,6.73,6.19,3.57v7.14L36.86,35l-6.18-3.57V24.29ZM24.43,27.86l6.19,3.57v7.14l-6.19,3.56,6.19,3.57v7.14l-6.19,3.57-6.18-3.57V45.7l6.18-3.57-6.18-3.56V31.43l6.18-3.57Zm24.82,0,6.18,3.57v7.14l-6.18,3.56,6.18,3.57v7.14l-6.18,3.57-6.19-3.57V45.7l6.19-3.57-6.19-3.56V31.43ZM36.86,35l6.19,3.57v7.14l-6.17,3.56,6.17,3.56V60l-6.19,3.57L30.68,60V52.84l6.17-3.56-6.17-3.56V38.58L36.86,35Z"/></svg>